{"title":"The.Gigolo.2.2016.BRRip.480p.x264.AAC-VYTO [P2PDL]","uid":13890223,"size":374476370,"categoryP":"video","categoryS":"movies","magnet":"?xt=urn:btih:308729ef7bff68ed06e518800777429b52a4f4b1&amp;dn=The.Gigolo.2.2016.BRRip.480p.x264.AAC-VYTO+%5BP2PDL%5D&amp;tr=udp%3A%2F%2Ftracker.leechers-paradise.org%3A6969&amp;tr=udp%3A%2F%2Fzer0day.ch%3A1337&amp;tr=udp%3A%2F%2Fopen.demonii.com%3A1337&amp;tr=udp%3A%2F%2Ftracker.coppersurfer.tk%3A6969&amp;tr=udp%3A%2F%2Fexodus.desync.com%3A6969","seeders":0,"leechers":1,"uploader":"VYTOP2PDL","files":7,"time":1458212703,"description":"____    ____ ____    ____ .___________.  ______   \r\n     /   /      /   / |           | /  __    \r\n    /   /      /   /  `---|  |----`|  |  |  | \r\n        /     _    _/       |  |     |  |  |  | \r\n       /        |  |         |  |     |  `--'  | \r\n    __/         |__|         |__|      ______/  \r\n                                                  \r\nPresenting Small Encodes with quality for years!\r\n                                                                                                   \r\n                                                                                                   \r\n\r\n\r\nThe.Gigolo.2.2016.BRRip.480p.x264.AAC-VYTO\r\n\r\n\r\nGenre: Comedy \nhttp://www.imdb.com/title/tt5474114/\r\n\r\n\r\nFormat                                   : MPEG-4\r\nFile size                                : 351 MiB\r\nDuration                                 : 1h 36mn\r\nOverall bit rate                         : 511 Kbps\r\n\r\nVideo\r\nFormat                                   : AVC\r\nBit rate                                 : 476 Kbps\r\nWidth                                    : 720 pixels\r\nHeight                                   : 304 pixels\r\nDisplay aspect ratio                     : 2.35:1\r\nFrame rate mode                          : Constant\r\nFrame rate                               : 24.000 fps\r\nBit depth                                : 8 bits\r\nStream size                              : 327 MiB (93%)\r\nWriting library                          : x264\r\n\r\nAudio\r\nFormat                                   : AAC\r\nBit rate mode                            : Variable\r\nBit rate                                 : 32.0 Kbps\r\nChannel(s)                               : 2 channels\r\nChannel positions                        : Front: L R\r\nSampling rate                            : 48.0 KHz\r\nStream size                              : 22.0 MiB (6%)\r\nLanguage                                 : Chinese\r\n\r\nSubtitle                                 : Yes (English)\r\n\r\nScreen Shot: (Click to view)\r\n \nhttp://ititli.com/Xja \nhttp://ititli.com/Xjb \nhttp://ititli.com/Xjz \nhttp://ititli.com/XjI \nhttp://ititli.com/XjO \nhttp://ititli.com/Xk9 \nhttp://ititli.com/XkX \nhttp://ititli.com/Xkq \nhttp://ititli.com/Xkr\r\n\r\n----------------------------------------------------------------------------------------------------\r\n\r\n\r\nEncoder Notes: Looking For Early Access To Anything You Can Provide WEBDL, DVDScr, DVDR, BluRay,\r\nDirect Audio, Music Releases and Seedboxes. If You Got anything to offer please contact us.\r\n\r\nSupport us by donating BC - 1FgwdzPsd1y25Gea8wP1qni35uGCtmkRCD\r\n\r\nFind us and join us!","torrent":{"xt":"urn:btih:308729ef7bff68ed06e518800777429b52a4f4b1","amp;dn":"The.Gigolo.2.2016.BRRip.480p.x264.AAC-VYTO+%5BP2PDL%5D","amp;tr":["udp%3A%2F%2Ftracker.leechers-paradise.org%3A6969","udp%3A%2F%2Fzer0day.ch%3A1337","udp%3A%2F%2Fopen.demonii.com%3A1337","udp%3A%2F%2Ftracker.coppersurfer.tk%3A6969","udp%3A%2F%2Fexodus.desync.com%3A6969"],"infoHash":"308729ef7bff68ed06e518800777429b52a4f4b1","infoHashBuffer":{"type":"Buffer","data":[48,135,41,239,123,255,104,237,6,229,24,128,7,119,66,155,82,164,244,177]},"announce":[],"urlList":[]}}